<?xml version="1.0" encoding="utf-8"?>
<!-- Generator: Adobe Illustrator 25.0.1, SVG Export Plug-In . SVG Version: 6.00 Build 0)  -->
<svg version="1.1" id="Layer_1" xmlns="http://www.w3.org/2000/svg" xmlns:xlink="http://www.w3.org/1999/xlink" x="0px" y="0px"
	 viewBox="0 0 1366 768" style="enable-background:new 0 0 1366 768;" xml:space="preserve">
<style type="text/css">
	.st0{fill:#39B54A;}
	.st1{fill:#FF392E;}
	.st2{fill:#666666;}
</style>
<polygon class="st0" points="439,621 813,517 994,194 936,112 816,38 704,24 605,33 515,73 432,137 393,195 359,263 342,355 
	342,428 373,511 387,554 "/>
<path class="st1" d="M408,582c0,3,250-284,250-284v180l296-336l22,19l60,111l13,86v89l-61,130l-62,71l-80,54l-77,22l-105,7l-102-26
	l-74-41L408,582z"/>
<g>
	<path class="st2" d="M695.5,47c44.5,0,87.65,8.71,128.25,25.88c39.23,16.59,74.47,40.36,104.75,70.63s54.04,65.51,70.63,104.75
		C1016.29,288.85,1025,332,1025,376.5s-8.71,87.65-25.88,128.25c-16.59,39.23-40.36,74.47-70.63,104.75s-65.51,54.04-104.75,70.63
		C783.15,697.29,740,706,695.5,706s-87.65-8.71-128.25-25.88c-39.23-16.59-74.47-40.36-104.75-70.63s-54.04-65.51-70.63-104.75
		C374.71,464.15,366,421,366,376.5s8.71-87.65,25.88-128.25c16.59-39.23,40.36-74.47,70.63-104.75s65.51-54.04,104.75-70.63
		C607.85,55.71,651,47,695.5,47 M695.5,12C494.19,12,331,175.19,331,376.5S494.19,741,695.5,741S1060,577.81,1060,376.5
		S896.81,12,695.5,12L695.5,12z"/>
</g>
</svg>
